<mxfile host="app.diagrams.net" modified="2023-01-30T14:56:13.016Z" agent="5.0 (Macintosh; Intel Mac OS X 10_15_7) AppleWebKit/605.1.15 (KHTML, like Gecko) Version/15.4 Safari/605.1.15" etag="fizx_hU9crtTTSzSk5jI" version="20.8.13" type="github">
  <diagram name="Page-1" id="tcuwCA8VDpRKaUfyrKvS">
    <mxGraphModel dx="955" dy="1807" grid="1" gridSize="10" guides="1" tooltips="1" connect="1" arrows="1" fold="1" page="1" pageScale="1" pageWidth="827" pageHeight="1169" math="0" shadow="0">
      <root>
        <mxCell id="0" />
        <mxCell id="1" parent="0" />
        <mxCell id="YndiZbiFn-cW8W3Jq16n-1" value="AWS Cloud" style="points=[[0,0],[0.25,0],[0.5,0],[0.75,0],[1,0],[1,0.25],[1,0.5],[1,0.75],[1,1],[0.75,1],[0.5,1],[0.25,1],[0,1],[0,0.75],[0,0.5],[0,0.25]];outlineConnect=0;html=1;whiteSpace=wrap;fontSize=12;fontStyle=0;container=1;pointerEvents=0;collapsible=0;recursiveResize=0;shape=mxgraph.aws4.group;grIcon=mxgraph.aws4.group_aws_cloud_alt;strokeColor=#788AA3;fillColor=none;verticalAlign=top;align=left;spacingLeft=30;fontColor=#46495D;dashed=0;labelBackgroundColor=none;rounded=0;" parent="1" vertex="1">
          <mxGeometry x="20" y="50" width="790.0000000000001" height="660" as="geometry" />
        </mxCell>
        <mxCell id="YndiZbiFn-cW8W3Jq16n-3" value="VPC" style="points=[[0,0],[0.25,0],[0.5,0],[0.75,0],[1,0],[1,0.25],[1,0.5],[1,0.75],[1,1],[0.75,1],[0.5,1],[0.25,1],[0,1],[0,0.75],[0,0.5],[0,0.25]];outlineConnect=0;html=1;whiteSpace=wrap;fontSize=12;fontStyle=0;container=1;pointerEvents=0;collapsible=0;recursiveResize=0;shape=mxgraph.aws4.group;grIcon=mxgraph.aws4.group_vpc;strokeColor=#788AA3;fillColor=none;verticalAlign=top;align=left;spacingLeft=30;fontColor=#46495D;dashed=0;labelBackgroundColor=none;rounded=0;" parent="YndiZbiFn-cW8W3Jq16n-1" vertex="1">
          <mxGeometry x="92.94" y="110" width="617.06" height="470" as="geometry" />
        </mxCell>
        <mxCell id="YndiZbiFn-cW8W3Jq16n-5" value="Region" style="points=[[0,0],[0.25,0],[0.5,0],[0.75,0],[1,0],[1,0.25],[1,0.5],[1,0.75],[1,1],[0.75,1],[0.5,1],[0.25,1],[0,1],[0,0.75],[0,0.5],[0,0.25]];outlineConnect=0;html=1;whiteSpace=wrap;fontSize=12;fontStyle=0;container=1;pointerEvents=0;collapsible=0;recursiveResize=0;shape=mxgraph.aws4.group;grIcon=mxgraph.aws4.group_region;strokeColor=#788AA3;fillColor=none;verticalAlign=top;align=left;spacingLeft=30;fontColor=#46495D;dashed=1;labelBackgroundColor=none;rounded=0;" parent="YndiZbiFn-cW8W3Jq16n-3" vertex="1">
          <mxGeometry x="-46.470588235294116" y="-55" width="697.0588235294118" height="550" as="geometry" />
        </mxCell>
        <mxCell id="YndiZbiFn-cW8W3Jq16n-7" value="Availability Zone" style="fillColor=none;strokeColor=#788AA3;dashed=1;verticalAlign=top;fontStyle=0;fontColor=#46495D;labelBackgroundColor=none;rounded=0;" parent="YndiZbiFn-cW8W3Jq16n-5" vertex="1">
          <mxGeometry x="487.9411764705883" y="302.5" width="151.0294117647059" height="178.75" as="geometry" />
        </mxCell>
        <mxCell id="YndiZbiFn-cW8W3Jq16n-9" value="Public subnet" style="points=[[0,0],[0.25,0],[0.5,0],[0.75,0],[1,0],[1,0.25],[1,0.5],[1,0.75],[1,1],[0.75,1],[0.5,1],[0.25,1],[0,1],[0,0.75],[0,0.5],[0,0.25]];outlineConnect=0;html=1;whiteSpace=wrap;fontSize=12;fontStyle=0;container=1;pointerEvents=0;collapsible=0;recursiveResize=0;shape=mxgraph.aws4.group;grIcon=mxgraph.aws4.group_security_group;grStroke=0;strokeColor=#788AA3;fillColor=#B2C9AB;verticalAlign=top;align=left;spacingLeft=30;fontColor=#46495D;dashed=0;labelBackgroundColor=none;rounded=0;" parent="YndiZbiFn-cW8W3Jq16n-5" vertex="1">
          <mxGeometry x="72.0294117647059" y="343.75" width="139.41176470588235" height="151.25" as="geometry" />
        </mxCell>
        <mxCell id="YndiZbiFn-cW8W3Jq16n-6" value="Availability Zone" style="fillColor=none;strokeColor=#788AA3;dashed=1;verticalAlign=top;fontStyle=0;fontColor=#46495D;labelBackgroundColor=none;rounded=0;" parent="YndiZbiFn-cW8W3Jq16n-9" vertex="1">
          <mxGeometry x="-11.617647058823529" y="-27.5" width="151.0294117647059" height="178.75" as="geometry" />
        </mxCell>
        <mxCell id="YndiZbiFn-cW8W3Jq16n-11" value="Public subnet" style="points=[[0,0],[0.25,0],[0.5,0],[0.75,0],[1,0],[1,0.25],[1,0.5],[1,0.75],[1,1],[0.75,1],[0.5,1],[0.25,1],[0,1],[0,0.75],[0,0.5],[0,0.25]];outlineConnect=0;html=1;whiteSpace=wrap;fontSize=12;fontStyle=0;container=1;pointerEvents=0;collapsible=0;recursiveResize=0;shape=mxgraph.aws4.group;grIcon=mxgraph.aws4.group_security_group;grStroke=0;strokeColor=#788AA3;fillColor=#B2C9AB;verticalAlign=top;align=left;spacingLeft=30;fontColor=#46495D;dashed=0;labelBackgroundColor=none;rounded=0;" parent="YndiZbiFn-cW8W3Jq16n-5" vertex="1">
          <mxGeometry x="499.5588235294118" y="343.75" width="127.79411764705883" height="137.5" as="geometry" />
        </mxCell>
        <mxCell id="YndiZbiFn-cW8W3Jq16n-10" value="Public subnet" style="points=[[0,0],[0.25,0],[0.5,0],[0.75,0],[1,0],[1,0.25],[1,0.5],[1,0.75],[1,1],[0.75,1],[0.5,1],[0.25,1],[0,1],[0,0.75],[0,0.5],[0,0.25]];outlineConnect=0;html=1;whiteSpace=wrap;fontSize=12;fontStyle=0;container=1;pointerEvents=0;collapsible=0;recursiveResize=0;shape=mxgraph.aws4.group;grIcon=mxgraph.aws4.group_security_group;grStroke=0;strokeColor=#788AA3;fillColor=#B2C9AB;verticalAlign=top;align=left;spacingLeft=30;fontColor=#46495D;dashed=0;labelBackgroundColor=none;rounded=0;" parent="YndiZbiFn-cW8W3Jq16n-5" vertex="1">
          <mxGeometry x="266.04411764705884" y="343.75" width="139.41176470588235" height="151.25" as="geometry" />
        </mxCell>
        <mxCell id="YndiZbiFn-cW8W3Jq16n-8" value="Availability Zone" style="fillColor=none;strokeColor=#788AA3;dashed=1;verticalAlign=top;fontStyle=0;fontColor=#46495D;labelBackgroundColor=none;rounded=0;" parent="YndiZbiFn-cW8W3Jq16n-10" vertex="1">
          <mxGeometry x="-11.617647058823529" y="-27.5" width="151.0294117647059" height="178.75" as="geometry" />
        </mxCell>
        <mxCell id="YndiZbiFn-cW8W3Jq16n-20" value="Auto scaling group" style="outlineConnect=0;fontColor=#46495D;fillColor=#B2C9AB;strokeColor=none;dashed=0;verticalLabelPosition=bottom;verticalAlign=top;align=center;html=1;fontSize=12;fontStyle=0;aspect=fixed;pointerEvents=1;shape=mxgraph.aws4.auto_scaling2;labelBackgroundColor=none;rounded=0;" parent="YndiZbiFn-cW8W3Jq16n-5" vertex="1">
          <mxGeometry x="305.52941176470586" y="205" width="48" height="48" as="geometry" />
        </mxCell>
        <mxCell id="YndiZbiFn-cW8W3Jq16n-23" value="Amazon EC2 Group" style="text;html=1;align=center;verticalAlign=middle;resizable=0;points=[];autosize=1;strokeColor=none;fillColor=none;labelBackgroundColor=none;fontColor=#46495D;rounded=0;" parent="YndiZbiFn-cW8W3Jq16n-5" vertex="1">
          <mxGeometry x="266.0405882352941" y="495" width="130" height="30" as="geometry" />
        </mxCell>
        <mxCell id="YndiZbiFn-cW8W3Jq16n-25" value="" style="fillColor=none;strokeColor=#788AA3;dashed=1;verticalAlign=top;fontStyle=0;fontColor=#46495D;labelBackgroundColor=none;" parent="YndiZbiFn-cW8W3Jq16n-5" vertex="1">
          <mxGeometry x="53.53" y="205" width="600" height="315" as="geometry" />
        </mxCell>
        <mxCell id="YndiZbiFn-cW8W3Jq16n-26" value="Application Load Balancer" style="sketch=0;outlineConnect=0;fontColor=#46495D;fillColor=#B2C9AB;strokeColor=none;dashed=0;verticalLabelPosition=bottom;verticalAlign=top;align=center;html=1;fontSize=12;fontStyle=0;aspect=fixed;pointerEvents=1;shape=mxgraph.aws4.application_load_balancer;labelBackgroundColor=none;" parent="YndiZbiFn-cW8W3Jq16n-5" vertex="1">
          <mxGeometry x="298.53999999999996" y="55" width="65" height="65" as="geometry" />
        </mxCell>
        <mxCell id="YndiZbiFn-cW8W3Jq16n-29" value="Certificate Manager&lt;br&gt;" style="outlineConnect=0;dashed=0;verticalLabelPosition=bottom;verticalAlign=top;align=center;html=1;shape=mxgraph.aws3.certificate_manager;fillColor=#B2C9AB;strokeColor=#788AA3;fontColor=#46495D;labelBackgroundColor=none;" parent="YndiZbiFn-cW8W3Jq16n-5" vertex="1">
          <mxGeometry x="120" y="58.5" width="70.03" height="51.5" as="geometry" />
        </mxCell>
        <mxCell id="YndiZbiFn-cW8W3Jq16n-30" value="" style="edgeStyle=orthogonalEdgeStyle;html=1;endArrow=block;elbow=vertical;startArrow=none;endFill=1;strokeColor=#788AA3;rounded=0;fontColor=default;fillColor=#B2C9AB;shape=flexArrow;labelBackgroundColor=none;" parent="YndiZbiFn-cW8W3Jq16n-5" target="YndiZbiFn-cW8W3Jq16n-26" edge="1">
          <mxGeometry width="100" relative="1" as="geometry">
            <mxPoint x="198.53058823529412" y="87" as="sourcePoint" />
            <mxPoint x="298.5405882352941" y="87.1" as="targetPoint" />
            <Array as="points">
              <mxPoint x="249" y="87" />
              <mxPoint x="249" y="87" />
            </Array>
          </mxGeometry>
        </mxCell>
        <mxCell id="YndiZbiFn-cW8W3Jq16n-33" value="" style="html=1;shadow=0;dashed=0;align=center;verticalAlign=middle;shape=mxgraph.arrows2.arrow;dy=0.68;dx=20.2;direction=south;notch=0;strokeColor=#788AA3;fontColor=#46495D;fillColor=#B2C9AB;" parent="YndiZbiFn-cW8W3Jq16n-5" vertex="1">
          <mxGeometry x="317.26" y="140" width="24.53" height="65" as="geometry" />
        </mxCell>
        <mxCell id="YndiZbiFn-cW8W3Jq16n-34" value="" style="html=1;shadow=0;dashed=0;align=center;verticalAlign=middle;shape=mxgraph.arrows2.arrow;dy=0.72;dx=13.6;direction=south;notch=0;strokeColor=#788AA3;fontColor=#46495D;fillColor=#B2C9AB;" parent="YndiZbiFn-cW8W3Jq16n-5" vertex="1">
          <mxGeometry x="323.16" y="25" width="12.74" height="30" as="geometry" />
        </mxCell>
        <mxCell id="YndiZbiFn-cW8W3Jq16n-28" value="Route 53" style="sketch=0;points=[[0,0,0],[0.25,0,0],[0.5,0,0],[0.75,0,0],[1,0,0],[0,1,0],[0.25,1,0],[0.5,1,0],[0.75,1,0],[1,1,0],[0,0.25,0],[0,0.5,0],[0,0.75,0],[1,0.25,0],[1,0.5,0],[1,0.75,0]];outlineConnect=0;fontColor=#46495D;gradientDirection=north;fillColor=#B2C9AB;strokeColor=#788AA3;dashed=0;verticalLabelPosition=bottom;verticalAlign=top;align=center;html=1;fontSize=12;fontStyle=0;aspect=fixed;shape=mxgraph.aws4.resourceIcon;resIcon=mxgraph.aws4.route_53;labelBackgroundColor=none;" parent="YndiZbiFn-cW8W3Jq16n-1" vertex="1">
          <mxGeometry x="351" y="20" width="50" height="50" as="geometry" />
        </mxCell>
        <mxCell id="YndiZbiFn-cW8W3Jq16n-15" value="" style="rounded=0;arcSize=10;dashed=1;strokeColor=#788AA3;fillColor=none;dashPattern=8 4;strokeWidth=2;labelBackgroundColor=none;fontColor=#46495D;" parent="1" vertex="1">
          <mxGeometry x="147.79" y="503.75" width="534.41" height="86.25" as="geometry" />
        </mxCell>
        <mxCell id="YndiZbiFn-cW8W3Jq16n-17" value="instances&lt;br&gt;" style="points=[[0,0,0],[0.25,0,0],[0.5,0,0],[0.75,0,0],[1,0,0],[0,1,0],[0.25,1,0],[0.5,1,0],[0.75,1,0],[1,1,0],[0,0.25,0],[0,0.5,0],[0,0.75,0],[1,0.25,0],[1,0.5,0],[1,0.75,0]];outlineConnect=0;fontColor=#46495D;gradientDirection=north;fillColor=#B2C9AB;strokeColor=#788AA3;dashed=0;verticalLabelPosition=bottom;verticalAlign=top;align=center;html=1;fontSize=12;fontStyle=0;aspect=fixed;shape=mxgraph.aws4.resourceIcon;resIcon=mxgraph.aws4.ec2;labelBackgroundColor=none;rounded=0;" parent="1" vertex="1">
          <mxGeometry x="163" y="512" width="78" height="78" as="geometry" />
        </mxCell>
        <mxCell id="YndiZbiFn-cW8W3Jq16n-18" value="instances&lt;br&gt;" style="points=[[0,0,0],[0.25,0,0],[0.5,0,0],[0.75,0,0],[1,0,0],[0,1,0],[0.25,1,0],[0.5,1,0],[0.75,1,0],[1,1,0],[0,0.25,0],[0,0.5,0],[0,0.75,0],[1,0.25,0],[1,0.5,0],[1,0.75,0]];outlineConnect=0;fontColor=#46495D;gradientDirection=north;fillColor=#B2C9AB;strokeColor=#788AA3;dashed=0;verticalLabelPosition=bottom;verticalAlign=top;align=center;html=1;fontSize=12;fontStyle=0;aspect=fixed;shape=mxgraph.aws4.resourceIcon;resIcon=mxgraph.aws4.ec2;labelBackgroundColor=none;rounded=0;" parent="1" vertex="1">
          <mxGeometry x="580" y="507.88" width="78" height="78" as="geometry" />
        </mxCell>
        <mxCell id="YndiZbiFn-cW8W3Jq16n-19" value="instances" style="points=[[0,0,0],[0.25,0,0],[0.5,0,0],[0.75,0,0],[1,0,0],[0,1,0],[0.25,1,0],[0.5,1,0],[0.75,1,0],[1,1,0],[0,0.25,0],[0,0.5,0],[0,0.75,0],[1,0.25,0],[1,0.5,0],[1,0.75,0]];outlineConnect=0;fontColor=#46495D;gradientDirection=north;fillColor=#B2C9AB;strokeColor=#788AA3;dashed=0;verticalLabelPosition=bottom;verticalAlign=top;align=center;html=1;fontSize=12;fontStyle=0;aspect=fixed;shape=mxgraph.aws4.resourceIcon;resIcon=mxgraph.aws4.ec2;labelBackgroundColor=none;rounded=0;" parent="1" vertex="1">
          <mxGeometry x="360" y="512" width="78" height="78" as="geometry" />
        </mxCell>
        <mxCell id="YndiZbiFn-cW8W3Jq16n-27" value="Users" style="fontColor=#46495D;verticalAlign=top;verticalLabelPosition=bottom;labelPosition=center;align=center;html=1;outlineConnect=0;fillColor=#B2C9AB;strokeColor=#788AA3;gradientDirection=north;strokeWidth=2;shape=mxgraph.networks.users;labelBackgroundColor=none;" parent="1" vertex="1">
          <mxGeometry x="369" y="-60" width="60" height="60" as="geometry" />
        </mxCell>
        <mxCell id="YndiZbiFn-cW8W3Jq16n-35" value="" style="html=1;shadow=0;dashed=0;align=center;verticalAlign=middle;shape=mxgraph.arrows2.arrow;dy=0.68;dx=20.2;direction=south;notch=0;strokeColor=#788AA3;fontColor=#46495D;fillColor=#B2C9AB;" parent="1" vertex="1">
          <mxGeometry x="386.74" y="20" width="23.26" height="40" as="geometry" />
        </mxCell>
        <mxCell id="YndiZbiFn-cW8W3Jq16n-36" value="Text" style="text;html=1;align=center;verticalAlign=middle;resizable=0;points=[];autosize=1;strokeColor=none;fillColor=none;fontColor=#46495D;" parent="1" vertex="1">
          <mxGeometry x="595" y="55" width="50" height="30" as="geometry" />
        </mxCell>
      </root>
    </mxGraphModel>
  </diagram>
</mxfile>
